<svg id="Capa_1" enable-background="new 0 0 512 512" height="512" viewBox="0 0 512 512" width="512" xmlns="http://www.w3.org/2000/svg"><g><path d="m504.5 37.5h-67.9v-15c0-12.407-10.094-22.5-22.5-22.5s-22.5 10.093-22.5 22.5v15h-60.4v-15c0-12.407-10.094-22.5-22.5-22.5s-22.5 10.093-22.5 22.5v15h-60.4v-15c0-12.407-10.094-22.5-22.5-22.5s-22.5 10.093-22.5 22.5v15h-60.4v-15c0-12.407-10.093-22.5-22.5-22.5s-22.5 10.093-22.5 22.5v15h-67.9c-4.143 0-7.5 3.358-7.5 7.5v97.5c0 4.142 3.357 7.5 7.5 7.5h489.5v38.7c0 28.949-23.552 52.5-52.5 52.5h-135.8c-4.143 0-7.5 3.358-7.5 7.5v135.8c0 28.949-23.552 52.5-52.5 52.5h-233.7v-264.5c0-4.142-3.357-7.5-7.5-7.5s-7.5 3.358-7.5 7.5v332c0 4.142 3.357 7.5 7.5 7.5h497c4.143 0 7.5-3.358 7.5-7.5v-459.5c0-4.142-3.357-7.5-7.5-7.5zm-188.3 218.7h128.3c2.407 0 4.782-.132 7.125-.379l-135.803 135.803c.247-2.342.379-4.718.379-7.124v-128.3zm-301.2 240.8v-15h482v15zm482-30h-482v-15h233.7c18.61 0 35.485-7.57 47.707-19.793.023.022 195.823-195.777 195.823-195.777 1.67-1.715 3.263-3.505 4.77-5.369zm-90.4-378.29c2.347.833 4.871 1.29 7.5 1.29s5.153-.458 7.5-1.29v8.79c0 4.136-3.364 7.5-7.5 7.5s-7.5-3.364-7.5-7.5zm0-66.21c0-4.136 3.364-7.5 7.5-7.5s7.5 3.364 7.5 7.5v45c0 4.136-3.364 7.5-7.5 7.5s-7.5-3.364-7.5-7.5zm-105.4 66.21c2.347.833 4.871 1.29 7.5 1.29s5.153-.458 7.5-1.29v8.79c0 4.136-3.364 7.5-7.5 7.5s-7.5-3.364-7.5-7.5zm0-66.21c0-4.136 3.364-7.5 7.5-7.5s7.5 3.364 7.5 7.5v45c0 4.136-3.364 7.5-7.5 7.5s-7.5-3.364-7.5-7.5zm-105.4 66.21c2.347.833 4.871 1.29 7.5 1.29s5.153-.458 7.5-1.29v8.79c0 4.136-3.364 7.5-7.5 7.5s-7.5-3.364-7.5-7.5zm0-66.21c0-4.136 3.364-7.5 7.5-7.5s7.5 3.364 7.5 7.5v45c0 4.136-3.364 7.5-7.5 7.5s-7.5-3.364-7.5-7.5zm-105.4 66.21c2.347.833 4.871 1.29 7.5 1.29s5.153-.458 7.5-1.29v8.79c0 4.136-3.364 7.5-7.5 7.5s-7.5-3.364-7.5-7.5zm0-66.21c0-4.136 3.364-7.5 7.5-7.5s7.5 3.364 7.5 7.5v45c0 4.136-3.364 7.5-7.5 7.5s-7.5-3.364-7.5-7.5zm-75.4 112.5v-82.5h60.4v45c0 12.407 10.094 22.5 22.5 22.5s22.5-10.093 22.5-22.5v-45h60.4v45c0 12.407 10.094 22.5 22.5 22.5s22.5-10.093 22.5-22.5v-45h60.4v45c0 12.407 10.094 22.5 22.5 22.5s22.5-10.093 22.5-22.5v-45h60.4v45c0 12.407 10.094 22.5 22.5 22.5s22.5-10.093 22.5-22.5v-45h60.4v82.5z"/></g></svg>