<svg id="Layer_1" enable-background="new 0 0 512.261 512.261" height="512" viewBox="0 0 512.261 512.261" width="512" xmlns="http://www.w3.org/2000/svg"><path d="m241.13 156.404c-6.286-1.376-12.383-3.609-18.072-6.646-17.998-9.61-38.231-14.689-58.515-14.689-10.87 0-21.762 1.441-32.375 4.285-34.205 9.165-62.986 32.546-78.964 64.146-15.978 31.602-17.747 68.642-4.851 101.622l54.118 138.405c8.034 20.545 21.932 37.912 40.191 50.225 17.957 12.108 38.854 18.509 60.434 18.509 9.423 0 18.844-1.245 28.003-3.699 8.775-2.352 17.159-5.773 25.031-10.21 7.872 4.437 16.256 7.858 25.032 10.211 9.155 2.453 18.576 3.697 28 3.698h.009c21.577 0 42.474-6.4 60.427-18.507 18.258-12.312 32.155-29.68 40.189-50.227l54.119-138.406c12.896-32.979 11.127-70.02-4.851-101.621-15.979-31.601-44.76-54.981-78.964-64.146-10.613-2.844-21.506-4.285-32.375-4.285-20.282 0-40.516 5.079-58.514 14.688-5.689 3.037-11.786 5.27-18.072 6.646v-47.328h25.501c32.85 0 59.575-26.726 59.575-59.575v-49.5h-55.501c-22.14 0-41.483 12.149-51.752 30.121-16.273-18.457-40.079-30.121-66.561-30.121v30c32.388 0 58.738 26.35 58.738 58.738zm30-96.83c0-16.307 13.267-29.574 29.575-29.574h25.501v19.5c0 16.308-13.267 29.575-29.575 29.575h-25.501zm164.837 234.622-54.119 138.405c-5.805 14.846-15.84 27.391-29.022 36.279-12.98 8.753-28.075 13.38-43.655 13.38-.002 0-.004 0-.006 0-6.805-.001-13.614-.901-20.237-2.676-8.689-2.329-16.849-6.112-24.252-11.244l-8.545-5.923-8.545 5.923c-7.403 5.132-15.563 8.915-24.251 11.243-6.626 1.776-13.436 2.677-20.237 2.677-15.581 0-30.679-4.628-43.661-13.382-13.183-8.89-23.219-21.434-29.023-36.277l-54.12-138.404c-9.791-25.042-8.449-53.166 3.684-77.16s33.985-41.747 59.957-48.705c8.081-2.166 16.361-3.264 24.609-3.264 15.372 0 30.719 3.856 44.384 11.153 14.473 7.727 30.794 11.811 47.202 11.811s32.731-4.085 47.203-11.812c13.665-7.296 29.013-11.152 44.384-11.152 8.249 0 16.529 1.098 24.611 3.264 25.971 6.958 47.824 24.711 59.956 48.705s13.474 52.118 3.683 77.159z"/></svg>